<svg width="50" height="50" viewBox="0 0 50 50" fill="none" xmlns="http://www.w3.org/2000/svg">
<circle cx="25" cy="25" r="24.1667" stroke="#F75943" stroke-width="1.66667"/>
<path d="M33.7538 31.8186C34.0106 32.0755 34.1549 32.4238 34.1549 32.787C34.1549 33.1503 34.0106 33.4986 33.7538 33.7555C33.4969 34.0123 33.1486 34.1566 32.7853 34.1566C32.4221 34.1566 32.0737 34.0123 31.8169 33.7555L24.5833 26.5196L17.3475 33.7532C17.0907 34.01 16.7423 34.1543 16.3791 34.1543C16.0159 34.1543 15.6675 34.01 15.4107 33.7532C15.1538 33.4963 15.0095 33.148 15.0095 32.7848C15.0095 32.4215 15.1538 32.0732 15.4107 31.8163L22.6465 24.5828L15.4129 17.3469C15.1561 17.0901 15.0118 16.7417 15.0118 16.3785C15.0118 16.0153 15.1561 15.6669 15.4129 15.4101C15.6698 15.1532 16.0181 15.009 16.3814 15.009C16.7446 15.009 17.0929 15.1532 17.3498 15.4101L24.5833 22.6459L31.8192 15.4089C32.076 15.1521 32.4244 15.0078 32.7876 15.0078C33.1508 15.0078 33.4992 15.1521 33.756 15.4089C34.0129 15.6658 34.1572 16.0141 34.1572 16.3774C34.1572 16.7406 34.0129 17.089 33.756 17.3458L26.5202 24.5828L33.7538 31.8186Z" fill="#E9543F"/>
</svg>
