<svg width="48" height="46" viewBox="0 0 48 46" fill="none" xmlns="http://www.w3.org/2000/svg">
<path d="M35.7276 44.2174L35.7276 44.2173L35.7216 44.2256C35.7004 44.2548 35.6752 44.2742 35.6495 44.286C35.6237 44.2979 35.5926 44.3043 35.5566 44.3015L35.5566 44.3014L35.5464 44.3007C35.0585 44.2652 28.4505 43.7018 21.1787 41.3866C13.8184 39.0432 6.25577 35.0547 3.2277 28.4725C1.83445 25.4344 1.66074 22 2.72711 18.9276C3.79253 15.8579 6.00684 13.4012 8.87219 12.0789C12.5296 10.3969 16.4308 10.5766 19.6403 12.3927L21.4507 13.4172L21.851 11.3759C22.5605 7.75709 24.9628 4.67796 28.62 2.99548C31.4886 1.68033 34.7949 1.59769 37.819 2.78632C40.8461 3.9761 43.3409 6.3432 44.741 9.37846C47.7679 15.9609 45.875 24.2983 42.8647 31.4117C39.8906 38.4397 36.0182 43.8238 35.7276 44.2174Z" stroke="white" stroke-width="3"/>
</svg>
