<svg width="65" height="61" viewBox="0 0 65 61" fill="none" xmlns="http://www.w3.org/2000/svg">
<path d="M62.7968 35.3763C55.3656 55.1788 21.1531 60.6259 19.7039 60.8372C19.3208 60.8958 18.9322 60.8558 18.5729 60.7209C18.2135 60.5861 17.8945 60.3605 17.6445 60.0644C16.6921 58.9519 -5.4905 32.3417 1.94062 12.5393C3.69066 7.89107 7.13989 4.0995 11.5316 1.99638C15.9233 -0.106734 20.8988 -0.349634 25.3666 1.32097C30.9767 3.42626 34.946 7.78162 36.4144 13.1768C41.0697 10.0796 46.9243 9.41079 52.5345 11.5161C56.9983 13.1972 60.5857 16.6534 62.5096 21.1265C64.4334 25.5996 64.5367 30.7243 62.7968 35.3763Z" fill="url(#paint0_linear_1306_8193)"/>
<defs>
<linearGradient id="paint0_linear_1306_8193" x1="38.9505" y1="6.41853" x2="18.5729" y2="60.7209" gradientUnits="userSpaceOnUse">
<stop stop-color="#F857A6"/>
<stop offset="1" stop-color="#FFC9E4"/>
</linearGradient>
</defs>
</svg>
