<svg width="19" height="18" viewBox="0 0 19 18" fill="none" xmlns="http://www.w3.org/2000/svg">
<path d="M9.92075 0C4.90884 0.00597656 0.847527 4.03186 0.841497 8.99944V9.00002C0.841461 9.00912 0.841444 9.01988 0.841444 9.03066C0.841444 11.2272 1.64554 13.2376 2.97787 14.7883L2.96737 14.7758L0 18H9.92075C14.9351 18 19 13.9706 19 9C19 4.02943 14.9351 0 9.92075 0ZM3.01165 16.6829L4.77524 14.7635L4.34033 14.3192C2.99803 12.9545 2.17012 11.0873 2.17012 9.02832C2.17012 9.01837 2.17012 9.0084 2.17017 8.99844V9.00002C2.17017 4.75682 5.6402 1.31708 9.92075 1.31708C14.2013 1.31708 17.6713 4.75683 17.6713 9C17.6713 13.2432 14.2013 16.6829 9.92075 16.6829H3.01165Z" fill="white"/>
</svg>
