<svg width="64" height="64" viewBox="0 0 64 64" fill="none" xmlns="http://www.w3.org/2000/svg">
<circle cx="32" cy="32" r="31.1667" stroke="white" stroke-width="1.66667"/>
<path d="M32.6201 18C25.2341 18.0086 19.249 23.8238 19.2401 30.9992V31C19.24 31.0132 19.24 31.0287 19.24 31.0443C19.24 34.2171 20.425 37.1209 22.3884 39.3609L22.373 39.3429L18 44H32.6201C40.0096 44 46 38.1797 46 31C46 23.8203 40.0096 18 32.6201 18ZM22.4382 42.0976L25.0372 39.3251L24.3963 38.6833C22.4182 36.7121 21.1981 34.0149 21.1981 31.0409C21.1981 31.0265 21.1981 31.0121 21.1981 30.9977V31C21.1981 24.871 26.3119 19.9024 32.6201 19.9024C38.9282 19.9024 44.042 24.871 44.042 31C44.042 37.129 38.9282 42.0976 32.6201 42.0976H22.4382Z" fill="white"/>
</svg>
