<svg width="6" height="8" viewBox="0 0 6 8" fill="none" xmlns="http://www.w3.org/2000/svg">
<path d="M5.083 4.47C4.821 5.001 4.466 5.53 4.103 6.005C3.75865 6.45281 3.39045 6.88176 3 7.29C2.60954 6.88177 2.24134 6.45282 1.897 6.005C1.534 5.53 1.179 5.001 0.917 4.47C0.652 3.9335 0.5 3.431 0.5 3C0.5 2.33696 0.763392 1.70107 1.23223 1.23223C1.70107 0.763392 2.33696 0.5 3 0.5C3.66304 0.5 4.29893 0.763392 4.76777 1.23223C5.23661 1.70107 5.5 2.33696 5.5 3C5.5 3.431 5.3475 3.9335 5.083 4.47ZM3 8C3 8 6 5.157 6 3C6 2.20435 5.68393 1.44129 5.12132 0.87868C4.55871 0.31607 3.79565 0 3 0C2.20435 0 1.44129 0.31607 0.87868 0.87868C0.316071 1.44129 1.18561e-08 2.20435 0 3C0 5.157 3 8 3 8Z" fill="black"/>
<path d="M3 4C2.73478 4 2.48043 3.89464 2.29289 3.70711C2.10536 3.51957 2 3.26522 2 3C2 2.73478 2.10536 2.48043 2.29289 2.29289C2.48043 2.10536 2.73478 2 3 2C3.26522 2 3.51957 2.10536 3.70711 2.29289C3.89464 2.48043 4 2.73478 4 3C4 3.26522 3.89464 3.51957 3.70711 3.70711C3.51957 3.89464 3.26522 4 3 4ZM3 4.5C3.39783 4.5 3.77936 4.34197 4.06066 4.06066C4.34197 3.77936 4.5 3.39783 4.5 3C4.5 2.60218 4.34197 2.22064 4.06066 1.93934C3.77936 1.65804 3.39783 1.5 3 1.5C2.60218 1.5 2.22064 1.65804 1.93934 1.93934C1.65804 2.22064 1.5 2.60218 1.5 3C1.5 3.39783 1.65804 3.77936 1.93934 4.06066C2.22064 4.34197 2.60218 4.5 3 4.5Z" fill="black"/>
</svg>
