<svg width="11" height="11" viewBox="0 0 11 11" fill="none" xmlns="http://www.w3.org/2000/svg">
<path fill-rule="evenodd" clip-rule="evenodd" d="M10.1482 0.922568C9.72875 0.503166 9.04877 0.503166 8.62937 0.922568L5.5918 3.96014L2.55423 0.922568C2.13483 0.503166 1.45484 0.503166 1.03544 0.922567C0.616039 1.34197 0.616039 2.02195 1.03544 2.44135L4.07301 5.47892L1.03544 8.5165C0.616039 8.9359 0.616039 9.61588 1.03544 10.0353C1.45484 10.4547 2.13482 10.4547 2.55423 10.0353L5.5918 6.99771L8.62937 10.0353C9.04877 10.4547 9.72875 10.4547 10.1482 10.0353C10.5676 9.61588 10.5676 8.9359 10.1482 8.5165L7.11058 5.47892L10.1482 2.44135C10.5676 2.02195 10.5676 1.34197 10.1482 0.922568Z" fill="#B3B3B3"/>
</svg>
