<svg width="50" height="51" viewBox="0 0 50 51" fill="none" xmlns="http://www.w3.org/2000/svg">
<circle cx="25" cy="25.5" r="24.1667" stroke="#B64198" stroke-width="1.66667"/>
<path d="M37.3438 22.0433C37.3438 30.0186 25.5188 36.474 25.0152 36.7406C24.8825 36.812 24.7341 36.8493 24.5834 36.8493C24.4327 36.8493 24.2843 36.812 24.1516 36.7406C23.648 36.474 11.823 30.0186 11.823 22.0433C11.8251 20.1705 12.57 18.375 13.8943 17.0508C15.2185 15.7265 17.014 14.9816 18.8868 14.9795C21.2395 14.9795 23.2994 15.9912 24.5834 17.7013C25.8674 15.9912 27.9273 14.9795 30.28 14.9795C32.1528 14.9816 33.9483 15.7265 35.2726 17.0508C36.5968 18.375 37.3417 20.1705 37.3438 22.0433Z" fill="#B64198"/>
</svg>
