<svg width="14" height="13" viewBox="0 0 14 13" fill="none" xmlns="http://www.w3.org/2000/svg">
<path fill-rule="evenodd" clip-rule="evenodd" d="M6.62726 0.0351562C6.03413 0.0351562 5.55331 0.515977 5.55331 1.1091V5.40487H1.25754C0.664415 5.40487 0.183594 5.88569 0.183594 6.47882C0.183594 7.07194 0.664414 7.55276 1.25754 7.55276H5.55331V11.8485C5.55331 12.4417 6.03413 12.9225 6.62726 12.9225C7.22038 12.9225 7.7012 12.4417 7.7012 11.8485V7.55276H11.997C12.5901 7.55276 13.0709 7.07194 13.0709 6.47882C13.0709 5.88569 12.5901 5.40487 11.997 5.40487H7.7012V1.1091C7.7012 0.515977 7.22038 0.0351562 6.62726 0.0351562Z" fill="#36434D"/>
</svg>
