<svg width="69" height="63" viewBox="0 0 69 63" fill="none" xmlns="http://www.w3.org/2000/svg">
<g clip-path="url(#clip0_1306_8145)">
<path d="M33.8819 8.94006C33.2621 9.95277 31.1626 13.6795 30.6885 14.5835C30.0749 15.769 27.2895 19.3111 26.0865 20.4356C23.9576 22.387 21.6972 23.8815 16.5252 26.6961C10.6531 29.8918 9.29609 30.8946 8.1673 32.801C7.25606 34.354 6.97928 35.6205 7.18115 37.39C7.38509 39.2172 10.527 44.9367 11.7533 45.7376C13.4396 46.8461 14.5446 47.1551 16.4071 47.0812C18.2471 47.0195 18.4401 46.9438 21.5486 45.3402L24.805 43.6855L28.1287 46.4578C29.9918 47.9986 31.9843 49.6159 32.6231 50.0904C33.2271 50.5546 34.2706 51.3963 34.9115 51.9285C36.6103 53.3825 37.1833 53.6286 37.906 53.2353C38.832 52.7314 38.9858 52.2072 38.5071 51.3812C38.1269 50.7365 30.5758 44.3919 29.7563 44.0156C29.5694 43.9412 29.1668 43.6317 28.834 43.3429C28.5115 43.0193 28.0719 42.6418 27.8582 42.4644C27.5378 42.1983 27.6261 42.0916 28.6876 41.5139C30.9235 40.2971 35.338 38.5113 37.414 37.9689C40.609 37.1698 44.9256 37.1405 48.1192 37.8986C50.9184 38.5776 51.7214 38.493 52.029 37.4446C52.1849 36.978 51.8109 36.1831 49.7026 32.3091L47.212 27.7326L47.8648 26.9956C49.4906 25.1418 49.7402 22.4806 48.4826 20.1697C47.299 17.9948 44.9492 16.6894 42.5733 16.8959L41.3803 17.0166L38.8651 12.3949C37.0896 9.13248 36.2575 7.76471 35.9432 7.67143C35.3497 7.49523 34.4484 8.04447 33.8819 8.94006ZM41.7193 23.5567C45.0359 29.651 47.7156 34.6825 47.6478 34.7194C47.6026 34.7439 47.0584 34.6584 46.4546 34.5171C42.5197 33.6339 35.2464 35.008 30.6391 37.5153C29.3969 38.1913 27.7338 39.0083 26.9289 39.3582L25.465 39.9494L22.4196 34.3535L19.3619 28.7349L19.9881 28.218C20.335 27.9411 21.608 27.1602 22.805 26.5088C26.745 24.3352 30.4093 20.5792 33.7075 15.2898C34.6106 13.8293 35.4193 12.6257 35.5199 12.5416C35.6102 12.4924 38.3904 17.4397 41.7193 23.5567ZM16.3067 30.2214L16.8776 30.0869L19.9353 35.7055L22.9806 41.3014L21.835 42.101C20.2726 43.1569 17.3877 44.257 16.2583 44.2256C14.3792 44.1617 12.6969 42.8455 11.353 40.3761C9.5529 37.0684 9.80873 34.5799 12.1676 32.6208C13.2064 31.7324 15.4854 30.4335 16.3067 30.2214ZM44.548 20.2554C46.0494 21.024 46.808 23.2247 46.0116 24.451C45.7058 24.9111 45.6462 24.8554 44.327 22.4313C42.8228 19.6673 42.8473 19.3896 44.548 20.2554Z" fill="white"/>
<path d="M48.9044 11.7473C47.9458 12.9444 47.0652 14.0696 47.0037 14.2793C46.7698 14.8177 47.5424 16.1298 48.1338 16.2484C48.8875 16.3962 50.1398 15.3623 51.7101 13.245C53.697 10.5486 53.8364 9.94417 52.5855 9.09794C51.8666 8.63759 50.9017 9.3389 48.9044 11.7473Z" fill="white"/>
<path d="M50.1016 17.8202C49.2415 18.8755 50.2215 20.1922 51.663 19.9363C52.9095 19.6985 57.0794 17.1942 57.3543 16.516C57.6498 15.7679 56.828 14.6882 55.9429 14.7294C55.103 14.746 50.6969 17.0851 50.1016 17.8202Z" fill="white"/>
<path d="M51.6709 22.6927C51.5581 23.0771 51.6671 23.5464 51.9589 23.9749C52.3842 24.595 52.5813 24.6346 54.7847 24.4339C57.4009 24.1847 59.3989 23.7141 59.8299 23.2152C60.183 22.7881 59.891 21.7137 59.2522 21.2391C58.9092 20.9853 57.9994 20.9812 56.0178 21.2668C52.4099 21.7913 51.8863 21.9588 51.6709 22.6927Z" fill="white"/>
</g>
<defs>
<clipPath id="clip0_1306_8145">
<rect width="55.0253" height="41.269" fill="white" transform="translate(0.608398 26.5488) rotate(-28.5555)"/>
</clipPath>
</defs>
</svg>
