<svg width="54" height="54" viewBox="0 0 54 54" fill="none" xmlns="http://www.w3.org/2000/svg">
<g clip-path="url(#clip0_1306_8140)">
<path d="M21.4199 2.14116C20.202 2.09664 19.5914 2.12126 18.4686 2.27334C16.3033 2.5638 14.0236 3.39861 12.1147 4.59701C10.9784 5.30738 9.4107 6.58767 8.55008 7.49976C7.31526 8.81617 6.21929 10.474 5.49723 12.1191C4.8086 13.6994 4.57269 14.4848 4.3014 16.1277C3.93218 18.3372 3.91275 20.0002 4.2359 21.9831C4.72171 24.985 6.10322 27.8481 8.27558 30.3743C9.96335 32.3328 12.0814 33.8353 14.6449 34.8789C15.7755 35.3426 16.6805 35.562 18.4005 35.7998C20.1254 36.0384 21.1245 36.0725 22.3276 35.9414C24.3709 35.7183 26.6724 35.0452 28.3654 34.1689L28.8559 33.9145L29.0521 34.1598C29.1616 34.2889 30.9117 36.4692 32.9462 39.0012C38.6523 46.1059 39.6554 47.3501 40.8011 48.7677C42.0981 50.3648 43.7118 52.328 44.0428 52.696C44.8543 53.6262 46.3585 53.4426 47.0752 52.3321C47.4058 51.8177 47.4718 51.0931 47.2385 50.6197C47.1081 50.3587 45.832 48.6455 44.6285 47.1158C44.0122 46.3316 41.7216 43.4569 39.5377 40.7307C33.9341 33.7344 32.612 32.0346 32.3878 31.5674L32.2884 31.3653L32.5285 31.1159C34.7623 28.7727 36.1874 26.2929 36.866 23.5809C37.1083 22.6081 37.4205 20.6336 37.4797 19.7099C37.6275 17.331 37.1314 14.5805 36.1592 12.3342C34.823 9.24946 32.4378 6.42113 29.7181 4.70158C28.3682 3.8407 26.8671 3.15225 25.6113 2.81499C25.0496 2.66295 21.9264 2.16162 21.4199 2.14116ZM23.8321 4.52705C25.3919 4.86174 26.6069 5.31729 27.9277 6.07004C32.4535 8.64416 35.2678 13.2917 35.4371 18.4756C35.4736 19.5217 35.4428 20.028 35.2901 21.1322C35.1253 22.3239 35.0073 22.8232 34.6472 23.8689C34.2054 25.1512 33.6978 26.1667 32.8901 27.3686C31.9458 28.7798 30.9305 29.8539 29.5345 30.92C28.0124 32.0826 26.3858 32.9037 24.654 33.3879C22.2853 34.0518 20.1393 34.0971 17.5415 33.5494C16.2048 33.2654 15.0668 32.8552 13.8808 32.2252C13.1593 31.8478 11.9282 31.0133 11.3065 30.4811C8.10437 27.753 6.17697 23.7388 6.04325 19.5363C5.99531 18.0772 6.35473 15.797 6.88201 14.1795C7.53105 12.1773 8.9842 9.91946 10.6518 8.30598C11.2567 7.72041 12.6193 6.6844 13.3337 6.26269C15.2669 5.13704 17.1403 4.51374 19.364 4.2611C19.9957 4.18983 20.9472 4.14296 21.3116 4.16361C21.8071 4.19248 23.2087 4.39623 23.8321 4.52705Z" fill="white"/>
</g>
<defs>
<clipPath id="clip0_1306_8140">
<rect width="47.5339" height="47.5339" fill="white" transform="translate(6.51172) rotate(7.87386)"/>
</clipPath>
</defs>
</svg>
