<svg width="31" height="33" viewBox="0 0 31 33" fill="none" xmlns="http://www.w3.org/2000/svg">
<path d="M15.9082 12.1846C15.056 12.0967 14.1986 12.286 13.4534 12.7265C12.7082 13.167 12.1117 13.8372 11.7455 14.6454C11.3792 15.4536 11.2612 16.3602 11.4075 17.2411C11.5539 18.122 11.9574 18.9341 12.563 19.5663C13.1685 20.1985 13.9464 20.6199 14.7902 20.7727C15.6339 20.9255 16.5023 20.8022 17.2764 20.4199C18.0505 20.0375 18.6924 19.4147 19.1144 18.6367C19.5363 17.8587 19.7176 16.9635 19.6334 16.0738C19.5375 15.0764 19.1142 14.1443 18.4353 13.4355C17.7563 12.7267 16.8636 12.2847 15.9082 12.1846ZM25.9092 16.5C25.9066 16.9714 25.8734 17.442 25.8099 17.9087L28.744 20.3113C28.8718 20.4219 28.9579 20.5762 28.987 20.7468C29.0161 20.9173 28.9863 21.0932 28.903 21.243L26.1273 26.257C26.043 26.4054 25.9112 26.518 25.7552 26.5749C25.5992 26.6318 25.429 26.6293 25.2745 26.568L22.3605 25.343C22.1998 25.2762 22.0258 25.252 21.8539 25.2727C21.6821 25.2934 21.5179 25.3583 21.376 25.4615C20.9313 25.7813 20.4639 26.0653 19.9781 26.3112C19.8253 26.3887 19.6932 26.5043 19.5933 26.6478C19.4935 26.7912 19.429 26.9582 19.4056 27.1338L18.9689 30.3787C18.9402 30.55 18.8554 30.7057 18.729 30.819C18.6025 30.9323 18.4423 30.9963 18.2757 31H12.7243C12.5604 30.997 12.4024 30.9359 12.2763 30.8267C12.1502 30.7174 12.0635 30.5666 12.0305 30.399L11.5944 27.1589C11.5699 26.9813 11.5037 26.8128 11.4018 26.6683C11.2999 26.5239 11.1654 26.408 11.0103 26.3309C10.5249 26.0863 10.0592 25.8015 9.61752 25.4792C9.4761 25.3764 9.31242 25.3121 9.14123 25.2918C8.97004 25.2716 8.79672 25.2962 8.63689 25.3633L5.72355 26.5877C5.56916 26.649 5.39898 26.6516 5.24298 26.5948C5.08698 26.538 4.95517 26.4256 4.87077 26.2773L2.09503 21.2633C2.01157 21.1135 1.98175 20.9377 2.01087 20.767C2.03999 20.5964 2.12615 20.4421 2.25403 20.3317L4.73384 18.2989C4.86969 18.1864 4.97647 18.0401 5.04447 17.8735C5.11247 17.7069 5.13954 17.5252 5.12323 17.3449C5.09987 17.0624 5.08559 16.7805 5.08559 16.498C5.08559 16.2154 5.09922 15.9376 5.12323 15.6612C5.13776 15.482 5.10936 15.3018 5.04059 15.1369C4.97182 14.972 4.86484 14.8276 4.72929 14.7166L2.25079 12.6839C2.12499 12.5729 2.04063 12.4191 2.01251 12.2497C1.98439 12.0802 2.01429 11.9058 2.09697 11.757L4.87272 6.74299C4.95702 6.5946 5.08878 6.48203 5.24479 6.42513C5.4008 6.36824 5.57104 6.37067 5.7255 6.43199L8.63948 7.65703C8.80018 7.72383 8.97423 7.74797 9.14606 7.72727C9.31788 7.70658 9.4821 7.6417 9.62401 7.53846C10.0687 7.21873 10.536 6.93469 11.0219 6.68878C11.1747 6.61127 11.3068 6.49568 11.4067 6.35222C11.5065 6.20876 11.571 6.04185 11.5944 5.86621L12.0311 2.62133C12.0598 2.44996 12.1446 2.29431 12.271 2.18098C12.3975 2.06766 12.5577 2.00368 12.7243 2H18.2757C18.4396 2.00296 18.5976 2.0641 18.7237 2.17335C18.8498 2.28259 18.9365 2.43343 18.9695 2.601L19.4056 5.84115C19.4301 6.01871 19.4963 6.18721 19.5982 6.33166C19.7001 6.47611 19.8346 6.59204 19.9897 6.66914C20.475 6.91371 20.9408 7.19852 21.3825 7.52084C21.5239 7.62357 21.6876 7.68795 21.8588 7.70817C22.03 7.7284 22.2033 7.70384 22.3631 7.63671L25.2764 6.41234C25.4308 6.35096 25.601 6.34843 25.757 6.4052C25.913 6.46196 26.0448 6.57439 26.1292 6.72266L28.905 11.7367C28.9884 11.8865 29.0182 12.0623 28.9891 12.233C28.96 12.4036 28.8738 12.5579 28.746 12.6683L26.2662 14.7011C26.1297 14.8133 26.0223 14.9594 25.9537 15.126C25.8852 15.2926 25.8576 15.4745 25.8735 15.6551C25.8949 15.9356 25.9092 16.2175 25.9092 16.5Z" stroke="#808080" stroke-width="3" stroke-linecap="round" stroke-linejoin="round"/>
</svg>
