<svg width="13" height="15" viewBox="0 0 13 15" fill="none" xmlns="http://www.w3.org/2000/svg">
<path d="M12.9015 7.62888C12.8145 7.10098 12.6707 6.58996 12.4851 6.09849C11.4331 3.31233 9.03981 1.1625 7.85291 0.224886C7.72685 0.125349 7.57594 0.0551391 7.41703 0.0222561C7.25902 -0.0106268 9.09301 -0.00707189 6.93766 0.0329209C6.77964 0.0738024 6.63227 0.151122 6.51065 0.256881C6.38637 0.365305 6.2905 0.503058 6.2319 0.655031L4.98641 3.90511L3.8652 2.87241C3.75956 2.77554 3.63617 2.70177 3.49857 2.65467C3.36274 2.60757 3.22159 2.5889 3.07867 2.59957C2.93486 2.60935 2.79726 2.64845 2.67031 2.71333C2.5407 2.78087 2.42884 2.87152 2.33918 2.9835C0.786534 4.9156 0 6.87258 0 8.79845C0 9.08818 0.0221944 9.3779 0.0648057 9.66319C0.0869991 9.81071 0.114519 9.95735 0.148253 10.1031C0.411911 11.2647 1.02356 12.348 1.91307 13.1923C3.13903 14.3583 4.76803 15 6.5 15C8.23197 15 9.86008 14.3583 11.0869 13.1923C12.3022 12.037 13 10.4355 13 8.79845C13 8.40119 12.9654 8.01015 12.9015 7.62888ZM11.1508 8.0617C9.49433 8.27232 8.29589 8.04037 7.24392 7.79952C5.91587 7.49558 4.33481 6.88413 2.84431 7.42625C1.8749 7.77908 1.34758 8.26788 0.978286 8.93532C0.978286 8.88999 0.976509 8.84467 0.976509 8.79845C0.976509 7.10098 1.69114 5.35018 3.09997 3.59583C3.10352 3.59139 3.10974 3.58695 3.11684 3.58339C3.12572 3.57806 3.13637 3.57539 3.14791 3.5745H3.15412C3.163 3.5745 3.17277 3.57628 3.18165 3.57895C3.1923 3.5825 3.1994 3.58784 3.20384 3.59139L5.38323 5.59903L7.14361 1.00519C7.14361 1.00519 7.14627 0.998969 7.15249 0.993637C7.15959 0.987416 7.16935 0.982972 7.18001 0.980306C7.19243 0.976751 7.20575 0.976751 7.21818 0.979417C7.22972 0.981194 7.24037 0.986527 7.24747 0.992748H7.24836C8.35359 1.86637 10.5889 3.86512 11.5574 6.39977C11.7439 6.88769 11.8841 7.39604 11.9596 7.9195C11.7092 7.97638 11.4402 8.02526 11.1508 8.0617Z" fill="url(#paint0_linear_1313_14210)"/>
<defs>
<linearGradient id="paint0_linear_1313_14210" x1="-1.93248e-07" y1="15" x2="15.8884" y2="4.32061" gradientUnits="userSpaceOnUse">
<stop stop-color="#E62885"/>
<stop offset="0.911458" stop-color="#009ADA"/>
</linearGradient>
</defs>
</svg>
