<svg width="18" height="19" viewBox="0 0 18 19" fill="none" xmlns="http://www.w3.org/2000/svg">
<path d="M8.73491 0.385336C8.73491 0.640409 8.58496 1.4198 8.40773 2.12834C7.1808 6.81886 6.18562 7.85333 1.78229 9.01533C0.691682 9.29875 -0.0990084 9.56799 0.0100524 9.6105C0.119113 9.65302 1.01886 9.89392 1.98678 10.1348C4.97232 10.9 6.41737 11.8637 7.28986 13.6775C7.83516 14.7828 8.435 16.7667 8.65312 18.1413C8.74855 18.6798 8.85761 19.0624 8.89851 18.9915C8.9394 18.9065 9.11663 18.1838 9.28022 17.3619C10.2481 12.6572 11.5569 11.2118 15.9602 10.0781C17.8688 9.58216 18.305 9.42628 17.8142 9.42628C17.228 9.42628 14.0516 8.50518 13.1791 8.08006C10.9161 7.00308 9.79826 4.94832 9.04846 0.527044C8.9394 -0.0964699 8.73491 -0.195665 8.73491 0.385336Z" fill="white"/>
</svg>
